<svg width="14" height="12" viewBox="0 0 14 12" fill="none" xmlns="http://www.w3.org/2000/svg">
<path d="M7.00878 7.00875L2.23206 11.6823C1.90191 12.0053 1.36804 12.0053 1.04139 11.6823L0.247617 10.9057C-0.0825389 10.5826 -0.0825389 10.0603 0.247617 9.74071L3.63347 6.428L0.247617 3.11528C-0.0825389 2.79226 -0.0825389 2.26992 0.247617 1.95033L1.03788 1.16683C1.36804 0.843805 1.90191 0.843805 2.22855 1.16683L7.00527 5.84037C7.33894 6.16339 7.33894 6.68573 7.00878 7.00875ZM13.7524 5.84037L8.97566 1.16683C8.64551 0.843805 8.11164 0.843805 7.785 1.16683L6.99122 1.94346C6.66106 2.26648 6.66106 2.78882 6.99122 3.10841L10.3771 6.42112L6.99122 9.73384C6.66106 10.0569 6.66106 10.5792 6.99122 10.8988L7.785 11.6754C8.11515 11.9984 8.64902 11.9984 8.97566 11.6754L13.7524 7.00188C14.0825 6.68573 14.0825 6.16339 13.7524 5.84037Z" fill="#0FBF61"/>
</svg>
